PathFileType  4	(X/Y/Z) C:\Users\antoi\Documents\MyRepositories\mobilecap\ResultsAnalysis
DataRate	CameraRate	NumFrames	NumMarkers	Units	OrigDataRate	OrigDataStartFrame	OrigNumFrames
100.0	100.0	4	51	mm	100.0	29	231
Frame#	Time	r_knee			r_shank_antsup			r_ankle			r_calc			r_5meta			r_toe			L_knee			L_shank_antsup			L_ankle			L_calc			L_5meta			L_toe			r_sh2			r_sh3			r_sh4			L_sh2			L_sh3			r_thigh1			r_thigh2			r_thigh3			r_thigh4			r_thigh5			L_thigh1			L_thigh2			L_thigh3			L_thigh4			r.ASIS			r.PSIS			L.ASIS			L.PSIS			C7			R_Shoulder			L_Shoulder			R_Sternum			L_Sternum			R_humerus			R_elbow_med			R_elbow_lat			R_forearm			R_wrist_radius			R_wrist_ulna			L_humerus			L_elbow_med			L_elbow_lat			L_forearm			L_wrist_radius			L_wrist_ulna			R_HJC			L_HJC			R_HJC_reg			L_HJC_reg			
		X1	Y1	Z1	X2	Y2	Z2	X3	Y3	Z3	X4	Y4	Z4	X5	Y5	Z5	X6	Y6	Z6	X7	Y7	Z7	X8	Y8	Z8	X9	Y9	Z9	X10	Y10	Z10	X11	Y11	Z11	X12	Y12	Z12	X13	Y13	Z13	X14	Y14	Z14	X15	Y15	Z15	X16	Y16	Z16	X17	Y17	Z17	X18	Y18	Z18	X19	Y19	Z19	X20	Y20	Z20	X21	Y21	Z21	X22	Y22	Z22	X23	Y23	Z23	X24	Y24	Z24	X25	Y25	Z25	X26	Y26	Z26	X27	Y27	Z27	X28	Y28	Z28	X29	Y29	Z29	X30	Y30	Z30	X31	Y31	Z31	X32	Y32	Z32	X33	Y33	Z33	X34	Y34	Z34	X35	Y35	Z35	X36	Y36	Z36	X37	Y37	Z37	X38	Y38	Z38	X39	Y39	Z39	X40	Y40	Z40	X41	Y41	Z41	X42	Y42	Z42	X43	Y43	Z43	X44	Y44	Z44	X45	Y45	Z45	X46	Y46	Z46	X47	Y47	Z47	X48	Y48	Z48	X49	Y49	Z49	X50	Y50	Z50	X51	Y51	Z51	

29	0.28000000	-1095.22060	835.54652	-436.02431	-1081.65982	733.00861	-447.85043	-1250.62263	430.45465	-466.24667	-1337.13990	383.24892	-510.52911	-1140.18347	357.67988	-422.85053	-1083.01916	386.14366	-486.82660	-1112.59248	830.83390	-738.74745	-1123.99113	739.98822	-758.04408	-1257.46381	430.44717	-695.24804	-1338.90392	382.18420	-638.19557	-1148.42238	360.04229	-728.21742	-1089.21141	388.73271	-664.97268	-1128.11914	632.06969	-423.31219	-1134.34604	766.80899	-402.60514	-1197.78884	669.58325	-396.00741	-1209.48339	770.68823	-756.36521	-1237.61756	652.35546	-746.54777	-1050.74260	1160.88323	-415.11835	-1037.26143	1052.26042	-427.06678	-1084.66724	1018.70901	-393.92730	-1160.34499	1142.01480	-397.80738	-1138.26690	1029.33551	-405.28631	-1046.32105	1121.99030	-752.12906	-1033.59626	982.99155	-735.49225	-1150.36415	1108.62356	-786.43276	-1143.71617	972.27023	-768.53347	-1051.09113	1365.04061	-459.44845	-1227.73352	1406.34804	-526.04725	-1046.08569	1357.14339	-705.09268	-1227.13702	1406.58631	-639.81018	-977.57549	1909.27931	-597.35392	-938.37112	1832.55902	-427.00861	-960.42257	1829.73997	-764.58015	-898.82116	1781.40978	-566.19788	-903.55665	1778.29445	-623.86259	-1010.16178	1690.16781	-356.02006	-1184.35635	1561.95478	-393.91733	-1161.32392	1568.05890	-316.07392	-1205.13615	1404.15616	-279.65421	-1216.17477	1306.95242	-275.76429	-1253.06714	1334.49490	-266.61804	-1042.00315	1728.05950	-840.60373	-1188.86976	1547.88955	-760.72443	-1184.18352	1551.78972	-840.18850	-1187.86254	1481.98730	-870.37127	-1244.47167	1310.59908	-877.97096	-1282.09481	1328.23045	-879.02678	-1148.52573	1262.94652	-475.51751	-1149.80767	1264.95129	-682.46453	-1121.00289	1290.73750	-494.37440	-1120.15231	1291.07805	-656.61453	
30	0.29000000	-1089.11258	833.21859	-437.05427	-1076.57736	730.62369	-448.26562	-1250.40192	430.59979	-466.26720	-1336.66096	383.30465	-510.69140	-1140.23295	357.72900	-422.92722	-1083.02105	386.12622	-486.85965	-1107.18881	828.82432	-739.20342	-1119.22161	738.07082	-758.24920	-1257.44442	430.37241	-695.66897	-1338.93343	382.22314	-638.30595	-1148.46840	360.04204	-728.31050	-1089.18061	388.78903	-665.16134	-1124.35517	630.35845	-423.93448	-1128.74699	765.34757	-403.10220	-1193.59804	669.53771	-395.82069	-1204.22141	769.97284	-756.70134	-1234.21505	651.98952	-746.69148	-1050.28621	1159.45511	-415.93057	-1034.55345	1051.71528	-427.27446	-1081.00876	1016.63524	-394.43544	-1158.91281	1138.56588	-397.92562	-1134.92001	1026.20931	-405.88355	-1045.20989	1120.65770	-752.57354	-1030.02040	981.91984	-735.79090	-1149.07069	1105.27612	-786.33191	-1140.12137	969.26929	-768.52298	-1051.48704	1361.67144	-459.67599	-1227.61408	1404.58446	-526.08313	-1046.81829	1353.99978	-705.24760	-1227.17009	1404.96327	-639.45877	-971.58859	1904.00350	-598.25692	-932.03082	1825.98487	-428.12131	-954.46683	1823.35464	-765.38426	-893.71091	1775.70404	-567.23051	-898.53747	1772.37287	-624.88124	-1001.98915	1683.02568	-357.32653	-1175.53868	1553.08918	-392.80128	-1150.82496	1558.56293	-315.82673	-1192.36068	1394.20897	-279.52808	-1202.35428	1296.68506	-276.29651	-1239.35218	1323.88752	-266.27858	-1034.46908	1720.44970	-841.64615	-1178.41696	1537.94215	-761.38368	-1173.68790	1541.73296	-841.33180	-1176.02699	1471.78911	-871.26108	-1229.45614	1299.40922	-878.50354	-1267.39458	1316.37961	-879.63939	-1149.73160	1260.44654	-475.65894	-1151.27672	1262.70226	-682.60154	-1122.02128	1288.02925	-494.58796	-1121.38536	1288.57130	-656.77136	
31	0.30000000	-1083.13313	830.87550	-437.81006	-1071.59973	728.13972	-448.72767	-1250.24054	430.60722	-466.38256	-1336.50903	383.31390	-510.78252	-1140.30022	357.76499	-422.97955	-1083.09812	386.06809	-486.97650	-1101.55870	826.46462	-739.35000	-1114.30268	735.79299	-758.25127	-1257.44899	430.35752	-696.27938	-1339.14314	382.21792	-638.25235	-1148.55415	359.99350	-728.37840	-1089.26281	388.63149	-665.25588	-1120.94725	628.53428	-424.40308	-1122.82382	764.07089	-403.66308	-1189.57762	669.22025	-395.80268	-1198.75903	769.06400	-757.08608	-1230.54009	651.42600	-747.03489	-1050.11879	1157.62564	-416.50092	-1032.27971	1050.58587	-427.50449	-1077.87781	1014.19070	-394.83836	-1157.95174	1134.67307	-398.33533	-1132.05131	1022.66988	-406.34836	-1044.09409	1119.12274	-752.92533	-1026.24076	980.67585	-736.19499	-1147.68651	1101.49991	-786.24902	-1136.26749	965.94153	-768.74501	-1051.72751	1357.76226	-459.89586	-1227.48685	1402.28703	-526.14631	-1047.55982	1350.49168	-705.48444	-1227.11648	1402.72744	-639.54641	-965.79925	1898.27894	-599.02137	-925.65864	1818.92170	-429.10606	-948.59662	1816.46709	-766.36301	-888.69254	1769.41432	-568.39553	-893.63255	1766.02935	-625.81353	-993.66467	1675.34592	-358.49267	-1165.73507	1543.03337	-391.36180	-1139.64152	1548.16434	-315.21766	-1177.89559	1383.00655	-279.24439	-1186.15573	1285.19481	-276.46363	-1223.51013	1311.82118	-265.75305	-1026.77879	1712.25644	-842.76826	-1167.19513	1527.01712	-762.68520	-1162.20005	1530.51695	-842.66905	-1162.85487	1460.38057	-872.18319	-1212.05981	1286.88710	-879.22406	-1250.40661	1302.88025	-880.49862	-1150.82835	1257.40493	-475.97234	-1152.57750	1259.97292	-682.90980	-1123.03151	1284.91797	-494.80637	-1122.50167	1285.54782	-656.98698	
32	0.31000000	-1077.23527	828.46723	-438.04919	-1066.95765	725.39472	-449.22191	-1250.10259	430.47209	-466.63279	-1336.75830	383.22736	-510.82966	-1140.35927	357.78262	-423.01294	-1083.23262	385.96243	-487.16128	-1095.74258	823.67110	-739.19469	-1109.22385	733.24793	-758.24270	-1257.32671	430.24169	-696.63184	-1339.38401	382.12233	-638.20751	-1148.64864	359.92657	-728.46694	-1089.40256	388.25494	-665.20872	-1117.70470	626.51601	-424.63035	-1116.90229	762.29685	-403.97367	-1185.54105	667.96120	-396.21731	-1193.14243	767.80884	-757.18512	-1226.71037	650.69573	-747.36554	-1050.04877	1155.26700	-416.75844	-1030.25910	1048.59712	-427.82201	-1075.17650	1011.31931	-395.10414	-1157.72891	1130.52119	-399.23251	-1129.38901	1018.89556	-406.36011	-1042.96260	1117.30652	-753.24448	-1022.32527	979.16862	-736.72110	-1146.14871	1097.65204	-786.87577	-1132.10240	962.33329	-769.12387	-1051.78246	1353.33234	-460.23397	-1227.26448	1399.51581	-526.31720	-1048.22895	1346.40346	-705.76591	-1227.06268	1400.01545	-639.78627	-960.28773	1892.12550	-599.64527	-919.60380	1811.42311	-430.02929	-942.84342	1809.13735	-767.55283	-883.83091	1762.69393	-569.50435	-888.85849	1759.40229	-626.55389	-985.17675	1667.17987	-359.72735	-1155.09516	1531.83733	-389.57129	-1127.64257	1536.82337	-314.33640	-1161.68011	1370.68793	-278.73419	-1167.65871	1272.68880	-276.28551	-1205.47874	1298.38707	-265.00417	-1018.93201	1703.45182	-843.90544	-1155.73193	1515.24728	-764.47270	-1149.67457	1518.25411	-844.29849	-1148.14978	1447.89498	-873.22425	-1192.29387	1273.14001	-879.86123	-1231.01844	1287.89173	-881.57164	-1151.85292	1253.89547	-476.35039	-1153.84429	1256.71471	-683.28248	-1123.86773	1281.30543	-495.06526	-1123.58014	1282.01948	-657.19597	
